<svg id="Layer_1" data-name="Layer 1" xmlns="http://www.w3.org/2000/svg" viewBox="0 0 183.32 168.1"><defs><style>.cls-1{fill:#fd90c5;}.cls-2{fill:#fdcdc6;}.cls-3{fill:#fdaac6;}.cls-4{fill:#fdb9c6;}.cls-5{fill:#fd95c6;}.cls-6{fill:#fd99c6;}.cls-7{fill:#fda4c6;}.cls-8{fill:#fdb1c6;}.cls-9{fill:#fd94c6;}.cls-10{fill:#fdbec6;}.cls-11{fill:#fdb4c6;}.cls-12{fill:#fdc8c6;}.cls-13{fill:#fd9ec6;}.cls-14{fill:#fdaec6;}.cls-15{fill:#fdc2c6;}.cls-16{fill:#fdc9c6;}.cls-17{fill:#fda7c6;}.cls-18{fill:#fdc5c6;}.cls-19{fill:#fdbcc6;}.cls-20{fill:#fd9ac6;}.cls-21{fill:#fdc2c7;}.cls-22{fill:#fda1c6;}.cls-23{fill:#fdc6c6;}.cls-24{fill:#fdb8c6;}.cls-25{fill:#fefefe;}.cls-26{fill:#fdacc6;}.cls-27{fill:#fd9bc6;}.cls-28{fill:#fdc2c8;}.cls-29{fill:#fdbbc6;}.cls-30{fill:#fdcac8;}</style></defs><title>heart_logo_svg</title><path class="cls-1" d="M12.71,90.84a46.58,46.58,0,0,1-10.35-19A55.88,55.88,0,0,1,3.81,35.4c2.4-6.11,5.48-11.83,10.38-16.46,1.59-.72,2.24.25,2.27,1.53.12,4.41.6,8.84-.36,13.21a9.35,9.35,0,0,1-.9,2.57c-5.63,12.94-5.82,25.89,0,38.82a7,7,0,0,1,.73,2.37c0,3.31.18,6.61.12,9.92a15.8,15.8,0,0,1-.13,2.48,2.44,2.44,0,0,1-1.21,2C13.66,92.37,13.34,91.28,12.71,90.84Z" transform="translate(0 0)"/><path class="cls-2" d="M169.66,19.51c4.46,4.17,7.16,9.46,9.56,14.94,3.7,8.49,4.58,17.45,3.87,26.53a52.19,52.19,0,0,1-12.6,30.21,19.28,19.28,0,0,1-1.84,1.66c-.89-.84-.74-2-.76-3V82.19a5.58,5.58,0,0,0-.87-3c-.5-1.24.2-2.26.69-3.28a44.69,44.69,0,0,0,1.1-37.79,3.79,3.79,0,0,1-.39-2.89c.87-3.93.21-7.91.43-11.86C169,22,168.63,20.63,169.66,19.51Z" transform="translate(0 0)"/><path class="cls-3" d="M87.74,166.09c-5.7-5.28-11.16-10.8-16.52-16.44,1.41-3.83,1.08-7.71.28-11.59a7.6,7.6,0,0,1-.52-1.88c.88-1.34,1.56-.2,2.1.28,1.67,1.47,3.19,3.11,4.77,4.68l10,10a5.57,5.57,0,0,1,2,3.3,76.59,76.59,0,0,1,0,9.34C89.86,165,89.81,166.63,87.74,166.09Z" transform="translate(0 0)"/><path class="cls-4" d="M127.2,134.63q-6.93,7.53-14.49,14.45c0-3,.51-6,.33-9.08-.08-1.25,0-2.51-1.13-3.4-.79-1,0-1.72.64-2.34q5.92-6,12-12a2.46,2.46,0,0,1,2.46-.88c.48.21,1,.53,1,1C128.41,126.57,129.49,130.73,127.2,134.63Z" transform="translate(0 0)"/><path class="cls-5" d="M15.36,34.05c.93-4.55.26-9.16.46-13.75,0-1.18-.76-1.29-1.63-1.34,3.21-4.28,7.41-7.39,11.86-10.29.89-.58,1.83-1.08,2.75-1.62a1.62,1.62,0,0,1,1.91,1.27h0a1,1,0,0,1,0,.24c.32,3.27.93,6.59-.55,9.77a6.8,6.8,0,0,1-1.89,2,48.82,48.82,0,0,0-10.9,12.12C16.89,33.18,16.49,34.13,15.36,34.05Z" transform="translate(0 0)"/><path class="cls-6" d="M38.75,117.25q-6.72-6.25-13-13c1.34-3.26.81-6.68.87-10.06,0-1.48-1-2.36-1.9-3.36s-2.6-1.9-2.66-3.72c.56-1,1.22-.34,1.61,0C27.52,91,31.74,94.44,35,98.84c1.1,1.8,2.8,3,4.21,4.56a5,5,0,0,1,1.71,3.21c.11,2.81.15,5.63,0,8.44C40.81,116.36,40.69,117.81,38.75,117.25Z" transform="translate(0 0)"/><path class="cls-7" d="M71.26,135.69c2.35,3.9,1.29,8.21,1.48,12.36a1.42,1.42,0,0,1-1.23,1.59h0a1.22,1.22,0,0,1-.27,0c-4.5-4.14-8.8-8.5-13-13,2.49-3.82,1.31-7.75.35-11.67-.15-.62-.63-1.16-.58-1.86.6-1.23,1.31-.37,1.74,0q5.76,5.51,11.2,11.23A1.13,1.13,0,0,1,71.26,135.69Z" transform="translate(0 0)"/><path class="cls-8" d="M87.74,166.09c1.53-.13,1.51-1.23,1.51-2.34V153.62c2.53,1.52,4.12.13,5.67-1.71a44.33,44.33,0,0,1,3.49-3.5,3,3,0,0,1,2.4-1.14c1.53.42,2,1.58,2.1,3,.07,1.07,0,2.15,0,3.21.33,3.4-.43,6.36-3.21,8.59-1.42,1.5-2.75,3.11-4.29,4.47C92.87,168.79,90.36,168.57,87.74,166.09Z" transform="translate(0 0)"/><path class="cls-9" d="M22.32,86.81c.53,2.06,2.43,3,3.73,4.43a4,4,0,0,1,1.28,3c-.08,2.21,0,4.43,0,6.65,0,1.38-.22,2.62-1.56,3.37-4.49-4.35-9.23-8.45-13-13.46,2,1,2.55.81,2.59-1.47.08-4,0-8,0-12.06a.79.79,0,0,1,.88.3c2,2.89,4.1,5.64,6.11,8.48A.79.79,0,0,1,22.32,86.81Z" transform="translate(0 0)"/><path class="cls-10" d="M127.2,134.63c1-3.75.3-7.57.49-11.35a1.44,1.44,0,0,0-1.27-1.59h-.25c-.23-1.1.63-1.65,1.24-2.27q4.28-4.33,8.61-8.6c.82-.81,1.63-1.73,3-1.35.39.18.84.43.89.81.58,4.17,1.53,8.38-.72,12.4A160.93,160.93,0,0,1,127.2,134.63Z" transform="translate(0 0)"/><path class="cls-11" d="M99.72,162.07c3.21-3.44,2.48-7.71,2.52-11.82,0-1.45-.52-2.4-2-2.62-.23-.76.28-1.25.72-1.71q4.49-4.57,9.06-9c.46-.44.94-.95,1.71-.71,1,0,2,.14,2,1.33-.17,3.88.91,7.87-.94,11.61Q106.49,155.89,99.72,162.07Z" transform="translate(0 0)"/><path class="cls-12" d="M167.12,78.83c1.51.12,1.55,1.19,1.55,2.34V92.85c-.35,1.6-1.75,2.37-2.78,3.41-2.86,2.88-5.81,5.67-8.73,8.5-.86-2.74.1-5.53-.18-8.29-.14-1.3.09-2.67-1.08-3.65-.84-1-.09-1.72.53-2.33a58.17,58.17,0,0,0,9.38-11.09A1.09,1.09,0,0,1,167.12,78.83Z" transform="translate(0 0)"/><path class="cls-13" d="M38.75,117.25c1.32-.11,1.56-1,1.55-2.09,0-2.73-.06-5.47,0-8.2A3.83,3.83,0,0,0,39,104.18c-1.57-1.78-3.77-3-4.7-5.33.66-.41,1.13,0,1.52.42,4.11,4.07,8.34,8,12.21,12.33a4.11,4.11,0,0,1,.5.86c4.46,3.52,4.22,8.43,3.92,13.33-.09,1.39-.15,2.94-2.19,2.93C46.26,125.05,42.49,121.22,38.75,117.25Z" transform="translate(0 0)"/><path class="cls-14" d="M85.81,9c1.9.51,3.21,2,4.7,3.1,1,.73,1.53.88,2.51,0A18,18,0,0,1,97.74,9c1.55,0,1.67,1.18,1.71,2.23.13,3,.32,6-.53,8.88-.91,2.63-3.19,3.91-5.37,5.2a3.87,3.87,0,0,1-3.62,0c-2.23-1.14-4.54-2.31-5.28-5,1.39-2.79.91-5.77.84-8.7C85.42,10.72,85,9.8,85.81,9Z" transform="translate(0 0)"/><path class="cls-15" d="M136.7,1.06c4.79.34,9.18,2,13.48,4,1.94,2.94,1.32,6.14.9,9.29A2,2,0,0,1,149.43,16a4.19,4.19,0,0,1-2.4-.52,44.6,44.6,0,0,0-20.81-4.24c-1.63.07-3.34.36-4.9-.49a.65.65,0,0,1-.13-.8,3.68,3.68,0,0,1,2.5-.6c3.48-.65,6.94-.16,10.39.23,1.78.2,2.38-.37,2.42-2.1C136.55,5.33,136.11,3.18,136.7,1.06Z" transform="translate(0 0)"/><path class="cls-11" d="M98.24,20.57a46.74,46.74,0,0,0,.5-9c0-1,.1-2-1-2.52,3.75-3.23,8.31-4.73,13-6,1.5-.54,1.65.69,1.88,1.55a13.3,13.3,0,0,1-.26,7.5,3.73,3.73,0,0,1-.55,1.09c-2,1.74-4.68,2.38-6.9,3.82-1.38.91-2.75,1.82-4.12,2.75C100,20.24,99.27,20.9,98.24,20.57Z" transform="translate(0 0)"/><path class="cls-16" d="M169.66,19.51V33.37c0,.85.32,1.93-1,2.12-.93,0-1.27-.7-1.62-1.3a48.44,48.44,0,0,0-7.62-9.94,2.41,2.41,0,0,1-.89-1.7c1.5-2.95.91-6.1.87-9.19,0-1-.32-2,.34-2.85C163.81,12.63,166.63,16.19,169.66,19.51Z" transform="translate(0 0)"/><path class="cls-17" d="M61.81.57c4.94.08,9.48,1.73,14,3.52,1.36,2.73.73,5.58.45,8.4a1.76,1.76,0,0,1-1.51,1.44,2.08,2.08,0,0,1-.86,0,8.66,8.66,0,0,0-3.61-.75,59.29,59.29,0,0,0-18.37-1.9,4.17,4.17,0,0,1-2.4-.46.7.7,0,0,1-.26-.78,2.75,2.75,0,0,1,2-.67,49,49,0,0,1,8.39-.09c2.56.3,2.82-.16,2.94-2.66A15.72,15.72,0,0,0,61.81.57Z" transform="translate(0 0)"/><path class="cls-18" d="M155.68,92.31c1.53-.11,2,.69,2,2.12-.12,3.44.32,6.92-.51,10.33a93.24,93.24,0,0,1-9,9c-1-1-.49-2.16-.41-3.3.18-2.94.86-6-1-8.65a1.53,1.53,0,0,1,.41-2c2.31-2.45,4.68-4.85,7.17-7.13A1.15,1.15,0,0,1,155.68,92.31Z" transform="translate(0 0)"/><path class="cls-19" d="M136.7,1.06c1,2.72.34,5.55.45,8.32.06,1.4-1.14,1.25-2,1.11A38.57,38.57,0,0,0,123.7,10c-1-1.19-.69-2.63-.73-4,0-1.86.16-3.76-.8-5.48,2.74-.94,5.54-.42,8.32-.29a24.23,24.23,0,0,1,2.7.3c.93.64,2.09-.11,3,.49A1.74,1.74,0,0,1,136.7,1.06Z" transform="translate(0 0)"/><path class="cls-20" d="M29.33,18.63c1.86-3.25.77-6.76.81-10.16,0-.62-.72-1.07-1.34-1.37a43.4,43.4,0,0,1,11-4.53c1.88-.74,2.64.13,2.72,1.91.1,2.23,0,4.47.22,6.69a2,2,0,0,1-.17.79c-1,1.18-2.82,1-3.88,2.09-2.44,1.7-5.28,2.71-7.72,4.42A1.28,1.28,0,0,1,29.33,18.63Z" transform="translate(0 0)"/><path class="cls-21" d="M146.66,101.27c2.07.47,1.84,2.22,2,3.69.35,2.94-.42,5.84-.49,8.77a93.24,93.24,0,0,1-9,9c1-3.75.3-7.57.48-11.36a1.42,1.42,0,0,0-1.23-1.59h0a1.13,1.13,0,0,0-.26,0c-.23-.65.16-1.11.55-1.52,2.08-2.19,4.23-4.33,6.42-6.41C145.54,101.42,146,101,146.66,101.27Z" transform="translate(0 0)"/><path class="cls-22" d="M50.25,128.72c.42-.37,1-.67,1.24-1.14,1.35-2.51,0-10.88-2-12.94-.67-.69-1.61-1.22-1.67-2.34.77-.41,1.25.17,1.69.59q4.17,4,8.18,8.16c.43.44,1,.93.62,1.7,2,3.4,2.15,7.15,2,10.93-.06,1.29.12,3-2,3A96.1,96.1,0,0,1,50.25,128.72Z" transform="translate(0 0)"/><path class="cls-3" d="M73.74,13.57c1.45.06,2.06-.64,2-2.09V4.09A28.69,28.69,0,0,1,85.74,9a35.93,35.93,0,0,1,.49,8.35,3.2,3.2,0,0,1-1.53,3.2C81.46,19.49,79,17,76,15.57,75.1,15.11,73.86,14.93,73.74,13.57Z" transform="translate(0 0)"/><path class="cls-23" d="M159.68,10.51a58.74,58.74,0,0,1,.38,9.09,2.91,2.91,0,0,1-1.43,3c-.77.23-1.23-.31-1.75-.7-2.07-1.65-4.23-3.2-6.46-4.64-.6-.35-1.39-.68-1.27-1.64,1.52-.33,1.5-1.54,1.53-2.69a33.26,33.26,0,0,0-.5-7.78A29.46,29.46,0,0,1,159.68,10.51Z" transform="translate(0 0)"/><path class="cls-22" d="M61.81.57a2.38,2.38,0,0,1,1.53,2.72,17.11,17.11,0,0,0,0,2.48c-.12,4.68,1,4.53-4.4,4.14-2.58-.18-5.06.33-7.59.12a12.45,12.45,0,0,1,0-9.48A26.5,26.5,0,0,1,61.81.57Z" transform="translate(0 0)"/><path class="cls-24" d="M122.18.57c1.4-.11,1.56.75,1.54,1.87V10h-2.5a21,21,0,0,1-9.49,2.53c.32-2.8,1-5.58,0-8.4-.21-.62-.43-1-1.09-1.09A28.86,28.86,0,0,1,122.18.57Z" transform="translate(0 0)"/><path class="cls-13" d="M51.29.57v9.48h-2c-.54,1.25-2,1-2.84,1.67-1.34.48-2.65,1.34-4.12.37-.89-2.41-.52-4.91-.5-7.37,0-1.54-.37-2.4-2.07-2.16a18.48,18.48,0,0,1,7.48-1.5c1-.58,2.11.16,3-.48Z" transform="translate(0 0)"/><path class="cls-15" d="M136.22,1.06c-1-.14-2.13.41-3-.49C134.22.68,135.32.24,136.22,1.06Z" transform="translate(0 0)"/><path class="cls-22" d="M50.29.57c-.9.91-2,.35-3,.48C48.16.28,49.26.63,50.29.57Z" transform="translate(0 0)"/><path class="cls-25" d="M42.33,12.08a9.28,9.28,0,0,0,4-1c.92-.62,2,0,3-.5,7.24-.37,14.42-.16,21.43,2a14.48,14.48,0,0,1,3,1h0c3.67,2.3,7.68,4.08,11,7,1.83,1.62,3.3,3.87,5.82,4.4,3.71.78,5.53-2.21,7.7-4.38a84.19,84.19,0,0,1,13-7.47,37.17,37.17,0,0,1,10-2.51c9.73-.69,19.11.58,27.94,5a106.11,106.11,0,0,1,9.47,7,69.74,69.74,0,0,1,10,13c3,7,4.9,14.17,4.57,21.86a47.65,47.65,0,0,1-5.58,20.35c-.18.37-.33.75-.47,1.13-3.19,5-7.38,9.19-11.44,13.48a103.3,103.3,0,0,0-9,9,94.37,94.37,0,0,0-8.5,8.47q-6.26,5.73-12,12-7.5,7-14.49,14.46a140,140,0,0,0-11.59,11.26c-1.94,1.88-3.91,3.74-5.83,5.64-2.49,2.44-2.48,2.45-5.11.35-5.81-6.17-11.78-12.17-18-17.93-4.13-4.51-8.44-8.84-13-12.94A122.56,122.56,0,0,0,47.81,112.3c-4.27-4.67-8.75-9.2-13.47-13.45-3.77-4.24-7.85-8.16-12-12a110.07,110.07,0,0,1-7-9.5c-2-4.71-3.88-9.45-4.58-14.6a46.76,46.76,0,0,1,3.78-26.64c.31-.67.55-1.37.83-2.06,1.81-2.43,3.64-4.85,5.44-7.3,2.31-3.18,5.53-5.55,8.48-8.18l9-5c1.26-.71,2.72-.89,4-1.52Z" transform="translate(0 0)"/><path class="cls-19" d="M121.22,10.57l-10,2.51.49-.54c3-1.29,6.32-1.71,9.49-2.49Z" transform="translate(0 0)"/><path class="cls-3" d="M73.75,13.57a5.39,5.39,0,0,1-3-1A3.09,3.09,0,0,1,73.75,13.57Z" transform="translate(0 0)"/><path class="cls-22" d="M49.3,10.63c-.91.73-2,.33-3,.5.77-1,2.14-.26,3-1Z" transform="translate(0 0)"/><path class="cls-13" d="M42.32,12.06a7.74,7.74,0,0,1-4,1.52A5.75,5.75,0,0,1,42.32,12.06Z" transform="translate(0 0)"/><path class="cls-26" d="M27.73,34.42A4.43,4.43,0,0,1,29.81,32c1.63.41,1.23,1.81,1.25,2.84q.12,6.71,0,13.42A51.07,51.07,0,0,0,31,62.46c.56,5.07.11,10.23,0,15.35,0,.68-.09,1.56-1.17,1.57a4.29,4.29,0,0,1-2-2.48,19.79,19.79,0,0,1-.16-4v-36A20.49,20.49,0,0,1,27.73,34.42Z" transform="translate(0 0)"/><path class="cls-27" d="M22.33,44.44a11.2,11.2,0,0,1,1.89-4.53c1.74-.44,1.69.92,1.79,1.92a41.84,41.84,0,0,1,0,4.48V68.72c0,1.12.53,2.93-1.78,2.68a10.4,10.4,0,0,1-1.92-4.52c.57-3.85.2-7.73.21-11.59C22.55,51.68,22.89,48.05,22.33,44.44Z" transform="translate(0 0)"/><path class="cls-22" d="M24.25,71.4c1.19-.16,1.06-1.06,1.06-1.88V41.77c0-.84.08-1.71-1.09-1.86a10.26,10.26,0,0,1,2-3.5c1.9.47,1.28,2.09,1.29,3.21.09,6.71,0,13.43,0,20.15V72.46c0,1,.36,2.27-1.28,2.44A7,7,0,0,1,24.25,71.4Z" transform="translate(0 0)"/><path class="cls-17" d="M26.25,74.9c1.58-2.56.63-5.39.68-8.06.17-9.06,0-18.13,0-27.19,0-1.12.17-2.3-.71-3.24a3.3,3.3,0,0,1,1.5-2c.82.61.57,1.5.57,2.3V74.57c0,.8.26,1.69-.56,2.31A3,3,0,0,1,26.25,74.9Z" transform="translate(0 0)"/><path class="cls-9" d="M22.33,44.44c.79-.33,1,0,1,.77v20.9c0,.78-.2,1.11-1,.77A31.44,31.44,0,0,1,22.33,44.44Z" transform="translate(0 0)"/><path class="cls-11" d="M29.81,79.38c.84-.71.48-1.68.53-2.55.23-4.52-.37-9,.43-13.57.31-1.75-.29-3.6-.53-5.37-.45-3.24.18-6.32.61-9.46a.37.37,0,0,1,.52,0h0c-1.08,6.26-1,12.41,1.48,18.38.73,4.27.2,8.56.06,12.83,0,.79-.4,1.7-1.61,1.2A3.5,3.5,0,0,1,29.81,79.38Z" transform="translate(0 0)"/><path class="cls-11" d="M31.35,48.44h-.54c-1-3.2-.23-6.5-.51-9.74-.2-2.24.56-4.55-.51-6.73a4.82,4.82,0,0,1,2-2c.7-.49,1.27-.09,1.23.53-.4,5.13.88,10.35-.75,15.42A5.46,5.46,0,0,1,31.35,48.44Z" transform="translate(0 0)"/><path class="cls-28" d="M34.31,69.34l2.5,3.08c1,3,1.38,5.92,0,8.89-1.66.54-3.31,1.7-5,0,1.39-.52,1.7-1.66,1.72-3v-6C33.59,71.32,33.43,70.2,34.31,69.34Z" transform="translate(0 0)"/><path class="cls-29" d="M32.31,45.94c.11-5.16.22-10.33.29-15.5,0-.14-.51-.3-.77-.45.68-.82,1.63-.45,2.48-.53a21.37,21.37,0,0,1,0,12.52A17.33,17.33,0,0,1,32.31,45.94Z" transform="translate(0 0)"/><path class="cls-29" d="M34.31,69.34c0,3.2-.13,6.4,0,9.59.1,2-.66,2.68-2.53,2.4l-.54-.48c1.38-.23,1-1.32,1-2.16.08-4-.23-7.94.54-11.87A5.48,5.48,0,0,1,34.31,69.34Z" transform="translate(0 0)"/><path class="cls-21" d="M34.32,42V29.46c.69,0,1.46-.19,2,.48,1.54,1.74.29,3.82.7,5.7A4.42,4.42,0,0,1,35.81,40C35.41,40.71,35.15,41.57,34.32,42Z" transform="translate(0 0)"/><path class="cls-30" d="M35.81,40c1.1-3.29.25-6.68.51-10,3.2,1.55,4.06,4.58,1.94,7.27C37.49,38.17,37,39.4,35.81,40Z" transform="translate(0 0)"/><path class="cls-30" d="M36.81,81.31V72.42C40.81,74.63,40,80.28,36.81,81.31Z" transform="translate(0 0)"/></svg>