<svg id="Layer_1" data-name="Layer 1" xmlns="http://www.w3.org/2000/svg" viewBox="0 0 535.77 168.1"><defs><style>.cls-1{fill:#404242;}.cls-2{fill:#fd90c5;}.cls-3{fill:#fdcdc6;}.cls-4{fill:#fdaac6;}.cls-5{fill:#fdb9c6;}.cls-6{fill:#fd95c6;}.cls-7{fill:#fd99c6;}.cls-8{fill:#fda4c6;}.cls-9{fill:#fdb1c6;}.cls-10{fill:#fd94c6;}.cls-11{fill:#fdbec6;}.cls-12{fill:#fdb4c6;}.cls-13{fill:#fdc8c6;}.cls-14{fill:#fd9ec6;}.cls-15{fill:#fdaec6;}.cls-16{fill:#fdc2c6;}.cls-17{fill:#fdc9c6;}.cls-18{fill:#fda7c6;}.cls-19{fill:#fdc5c6;}.cls-20{fill:#fdbcc6;}.cls-21{fill:#fd9ac6;}.cls-22{fill:#fdc2c7;}.cls-23{fill:#fda1c6;}.cls-24{fill:#fdc6c6;}.cls-25{fill:#fdb8c6;}.cls-26{fill:#fefefe;}.cls-27{fill:#fdacc6;}.cls-28{fill:#fd9bc6;}.cls-29{fill:#fdc2c8;}.cls-30{fill:#fdbbc6;}.cls-31{fill:#fdcac8;}</style></defs><title>logo_svg</title><path class="cls-1" d="M378.16,108.06v-3.12c0-12.8.07-25.59-.07-38.38,0-2.39.73-3,2.92-2.78a17.83,17.83,0,0,0,4,0c2-.23,2.69.36,2.68,2.52q-.12,35.13,0,70.27c0,2.14-.64,2.61-2.66,2.57-5.88-.12-5.89,0-7.56-5.59q-4.68-15.62-9.36-31.21c-.3-1-.35-2.11-1.33-3,0,12.44,0,24.72.05,37,0,2.09-.36,3.08-2.69,2.78-2.13-.27-4.91.86-6.28-.42s-.5-4.25-.51-6.45q0-32.77-.06-65.54c0-2.15.35-3,2.8-3,5.74.19,5.76,0,7.24,5.55q4.92,18.26,9.83,36.51c.21.77.44,1.54.67,2.31Z" transform="translate(-17.19 -17.43)"/><path class="cls-1" d="M342,108.66v27.89c0,1.83-.27,2.83-2.41,2.58s-5.1.88-6.52-.41c-1.59-1.44-.46-4.39-.52-6.67-.11-4.15-.12-8.3,0-12.45.06-1.8-.57-2.36-2.28-2.2-2.3.21-5.29-1-6.75.45s-.41,4.4-.45,6.7q-.11,6.35,0,12.7c0,1.39-.4,1.94-1.84,1.87q-3-.13-6,0c-1.34.06-1.71-.47-1.69-1.73.34-19.84-.64-39.69.57-59.51a26.51,26.51,0,0,1,.46-3.2c1.75-10.21,10.07-14.69,19.66-10.57a9.76,9.76,0,0,1,5.44,6.15,36.44,36.44,0,0,1,2,11.8c.1,8.88,0,17.76,0,26.65Z" transform="translate(-17.19 -17.43)"/><path class="cls-1" d="M298.25,101.4v35.38c0,1.86-.44,2.54-2.34,2.35a27.83,27.83,0,0,0-5,0c-1.78.16-2.23-.51-2.22-2.23.08-10.3,0-20.6.1-30.9,0-2.21-.55-3-2.76-2.71s-4.87-.86-6.27.44-.45,4.08-.47,6.2c-.05,8.89-.07,17.78,0,26.66,0,1.85-.31,2.82-2.42,2.53-2.27-.31-5.23,1-6.69-.55-1.32-1.4-.38-4.28-.38-6.51q0-32.76-.07-65.53c0-2.18.51-3,2.75-2.74s4.93-.86,6.26.41.46,4.24.48,6.44q.11,11.34,0,22.68c0,1.86.32,2.82,2.43,2.54,2.27-.31,5.24,1,6.69-.55,1.3-1.39.35-4.28.37-6.5,0-7.65.05-15.29,0-22.93,0-1.63.45-2.22,2.1-2.09a32.74,32.74,0,0,0,5.24,0c1.79-.16,2.21.51,2.2,2.23C298.21,77.81,298.25,89.61,298.25,101.4Z" transform="translate(-17.19 -17.43)"/><path class="cls-1" d="M510.35,101c0,9.21.36,18.45-1.38,27.56-.9,4.7-2.59,9-7.74,10.72a18.72,18.72,0,0,1-11.28-.06c-3.94-1.12-5.76-4.29-6.89-7.91a48.6,48.6,0,0,1-1.83-13.78c-.24-12.78-.69-25.57.32-38.35a32.25,32.25,0,0,1,1.89-9,10.35,10.35,0,0,1,8.38-7,22.51,22.51,0,0,1,7.68,0A10.35,10.35,0,0,1,508,70.28c2.07,5.65,2.07,11.58,2.3,17.45C510.48,92.16,510.35,96.56,510.35,101Z" transform="translate(-17.19 -17.43)"/><path class="cls-1" d="M543.39,94.3c0-9.38,0-18.77,0-28.15,0-1.83.43-2.58,2.35-2.36,2.21.26,5.07-.91,6.49.47s.45,4.26.45,6.47q0,23.79-.15,47.58A50.71,50.71,0,0,1,551,130.64c-1.76,6.9-6.07,10-13.18,9.4-7.52-.58-10.39-3.07-12-10.53a70.92,70.92,0,0,1-1.31-14.61c0-16.27,0-32.55-.11-48.82,0-1.94.59-2.5,2.4-2.28,2.28.27,5.23-1,6.7.54s.38,4.27.39,6.49q.08,23.55.09,47.08a45.43,45.43,0,0,0,.81,9.16c.42,2,1.31,3.55,3.74,3.57,2.59,0,3.45-1.68,3.87-3.76.86-4.26.79-8.59.86-12.9.12-6.56,0-13.12,0-19.68Z" transform="translate(-17.19 -17.43)"/><path class="cls-1" d="M412.68,108.21a5.34,5.34,0,0,0-.21,2.6c0,8.72-.05,17.44,0,26.17,0,1.58-.38,2.27-2.08,2.15a38.69,38.69,0,0,0-5.49,0c-1.6.11-1.94-.56-1.93-2V65.85c0-1.71.6-2.14,2.16-2,2.32.15,5.31-.71,6.78.43s.49,4.36.51,6.65c.08,7,0,13.94.49,21,.73-2.23,1.47-4.46,2.18-6.7,2.05-6.48,4.14-13,6.12-19.46.43-1.42,1.06-2,2.61-1.93a41.91,41.91,0,0,0,5.49,0c1.72-.1,1.9.45,1.4,2-3.38,10.42-6.62,20.87-10,31.29a8.21,8.21,0,0,0-.06,5.07c3.37,11.54,6.61,23.12,10,34.65.62,2.08.07,2.49-1.83,2.3-2.3-.22-5.18.95-6.76-.48-1.42-1.29-1.5-4.08-2.12-6.22q-3.42-11.7-6.8-23.41C413.12,108.72,413.21,108.3,412.68,108.21Z" transform="translate(-17.19 -17.43)"/><path class="cls-1" d="M450.05,122.06c1.31-11-1.23-21.58-4.16-32.09-2.21-7.91-4.09-15.91-6.21-23.8-.47-1.75-.36-2.62,1.8-2.38s5.18-.89,6.79.44,1.22,4.32,1.69,6.58c1.39,6.74,2.67,13.51,4,20.26.1.52-.11,1.38.63,1.45.93.08.81-.85.93-1.45,1.67-8.46,3.37-16.91,5-25.39.27-1.46.83-2,2.27-1.89a41.91,41.91,0,0,0,5.49,0c1.95-.15,1.95.66,1.55,2.21-3.31,12.75-6.53,25.53-9.83,38.29a15.27,15.27,0,0,0-.48,3.93v28.65c0,1.7-.39,2.41-2.2,2.26-2.3-.19-5.28.7-6.76-.45s-.43-4.34-.51-6.62C450,128.74,450.05,125.41,450.05,122.06Z" transform="translate(-17.19 -17.43)"/><path class="cls-1" d="M239.37,105.53c0-10.3-.05-20.6,0-30.9,0-1.82-.4-2.56-2.34-2.37s-3.66,0-5.48,0c-1.34.06-1.66-.48-1.71-1.74-.3-6.75-.33-6.75,6.41-6.75,6.58,0,13.15.08,19.73,0,1.91,0,2.34.55,2.32,2.38-.06,6.14,0,6.12-6.25,6.15-3.75,0-3.25-.43-3.25,3.36v60.56c0,2.13-.32,3.26-2.79,2.91-2.11-.29-4.88.87-6.25-.46s-.43-4.09-.44-6.22Q239.35,119,239.37,105.53Z" transform="translate(-17.19 -17.43)"/><path class="cls-2" d="M29.9,108.27a46.58,46.58,0,0,1-10.35-19C16.07,77,16.33,64.77,21,52.83,23.4,46.72,26.48,41,31.38,36.37c1.59-.72,2.24.25,2.27,1.53.12,4.41.6,8.84-.36,13.21a9.35,9.35,0,0,1-.9,2.57c-5.63,12.94-5.82,25.89,0,38.82a7,7,0,0,1,.73,2.37c0,3.31.18,6.61.12,9.92a15.8,15.8,0,0,1-.13,2.48,2.44,2.44,0,0,1-1.21,2C30.85,109.8,30.53,108.71,29.9,108.27Z" transform="translate(-17.19 -17.43)"/><path class="cls-3" d="M186.85,36.94c4.46,4.17,7.16,9.46,9.56,14.94,3.7,8.49,4.58,17.45,3.87,26.53a52.19,52.19,0,0,1-12.6,30.21,19.28,19.28,0,0,1-1.84,1.66c-.89-.84-.74-2-.76-3V99.62a5.58,5.58,0,0,0-.87-3.05c-.5-1.24.2-2.26.69-3.28A44.69,44.69,0,0,0,186,55.5a3.79,3.79,0,0,1-.39-2.89c.87-3.93.21-7.91.43-11.86C186.16,39.43,185.82,38.06,186.85,36.94Z" transform="translate(-17.19 -17.43)"/><path class="cls-4" d="M104.93,183.52c-5.7-5.28-11.16-10.8-16.52-16.44,1.41-3.83,1.08-7.71.28-11.59a7.6,7.6,0,0,1-.52-1.88c.88-1.34,1.56-.2,2.1.28,1.67,1.47,3.19,3.11,4.77,4.68l10,10a5.59,5.59,0,0,1,2,3.3,76.59,76.59,0,0,1,0,9.34C107.05,182.41,107,184.06,104.93,183.52Z" transform="translate(-17.19 -17.43)"/><path class="cls-5" d="M144.39,152.06q-6.93,7.53-14.49,14.45c0-3,.51-6,.33-9.08-.08-1.25,0-2.51-1.13-3.4-.79-1,0-1.72.64-2.34q5.92-6,12-12a2.46,2.46,0,0,1,2.46-.88c.48.21,1,.53,1,1C145.6,144,146.68,148.16,144.39,152.06Z" transform="translate(-17.19 -17.43)"/><path class="cls-6" d="M32.55,51.48c.93-4.55.26-9.16.46-13.75.05-1.18-.76-1.29-1.63-1.34C34.59,32.11,38.79,29,43.24,26.1c.89-.58,1.83-1.08,2.75-1.62a1.62,1.62,0,0,1,1.91,1.27,1,1,0,0,1,0,.24c.32,3.27.93,6.59-.55,9.77a6.88,6.88,0,0,1-1.89,2A48.61,48.61,0,0,0,34.56,49.88C34.08,50.61,33.68,51.56,32.55,51.48Z" transform="translate(-17.19 -17.43)"/><path class="cls-7" d="M55.94,134.68q-6.72-6.26-13-13c1.34-3.26.81-6.68.87-10.06,0-1.48-1-2.36-1.9-3.36s-2.6-1.9-2.66-3.72c.56-1,1.22-.34,1.61,0,3.85,3.84,8.07,7.33,11.34,11.73,1.1,1.8,2.8,3,4.21,4.56a5,5,0,0,1,1.71,3.21c.11,2.81.15,5.63,0,8.44C58,133.79,57.88,135.24,55.94,134.68Z" transform="translate(-17.19 -17.43)"/><path class="cls-8" d="M88.45,153.12c2.35,3.9,1.29,8.21,1.48,12.36a1.42,1.42,0,0,1-1.25,1.59,1.22,1.22,0,0,1-.27,0c-4.5-4.14-8.8-8.5-13-13,2.49-3.82,1.31-7.75.35-11.67-.15-.62-.63-1.16-.58-1.86.6-1.23,1.31-.37,1.74,0q5.76,5.5,11.2,11.23A1.13,1.13,0,0,1,88.45,153.12Z" transform="translate(-17.19 -17.43)"/><path class="cls-9" d="M104.93,183.52c1.53-.13,1.51-1.23,1.51-2.34V171.05c2.53,1.52,4.12.13,5.67-1.71a44.33,44.33,0,0,1,3.49-3.5A3,3,0,0,1,118,164.7c1.53.42,2,1.58,2.1,3,.07,1.07,0,2.15,0,3.21.33,3.4-.43,6.36-3.21,8.59-1.42,1.5-2.75,3.11-4.29,4.47C110.06,186.22,107.55,186,104.93,183.52Z" transform="translate(-17.19 -17.43)"/><path class="cls-10" d="M39.51,104.24c.53,2.06,2.43,3,3.73,4.43a4,4,0,0,1,1.28,3c-.08,2.21,0,4.43,0,6.65,0,1.38-.22,2.62-1.56,3.37-4.49-4.35-9.23-8.45-13-13.46,2,1,2.55.81,2.59-1.47.08-4,0-8,0-12.06a.79.79,0,0,1,.88.3c2,2.89,4.1,5.64,6.11,8.48A.79.79,0,0,1,39.51,104.24Z" transform="translate(-17.19 -17.43)"/><path class="cls-11" d="M144.39,152.06c1-3.75.3-7.57.49-11.35a1.44,1.44,0,0,0-1.27-1.59,1,1,0,0,0-.25,0c-.23-1.1.63-1.65,1.24-2.27q4.28-4.34,8.61-8.6c.82-.81,1.63-1.73,3-1.35.39.18.84.43.89.81.58,4.17,1.53,8.38-.72,12.4A161.06,161.06,0,0,1,144.39,152.06Z" transform="translate(-17.19 -17.43)"/><path class="cls-12" d="M116.91,179.5c3.21-3.44,2.48-7.71,2.52-11.82,0-1.45-.52-2.4-2-2.62-.23-.76.28-1.25.72-1.71q4.48-4.57,9.06-9c.46-.44.94-.95,1.71-.71,1,0,2,.14,2,1.33-.17,3.88.91,7.87-.94,11.61Q123.68,173.32,116.91,179.5Z" transform="translate(-17.19 -17.43)"/><path class="cls-13" d="M184.31,96.26c1.51.12,1.55,1.19,1.55,2.34v11.68c-.35,1.6-1.75,2.37-2.78,3.41-2.86,2.88-5.81,5.67-8.73,8.5-.86-2.74.1-5.53-.18-8.29-.14-1.3.09-2.67-1.08-3.65-.84-1-.09-1.72.53-2.33A58.07,58.07,0,0,0,183,96.83,1.09,1.09,0,0,1,184.31,96.26Z" transform="translate(-17.19 -17.43)"/><path class="cls-14" d="M55.94,134.68c1.32-.11,1.56-1,1.55-2.09,0-2.73-.06-5.47,0-8.2a3.83,3.83,0,0,0-1.33-2.78c-1.57-1.78-3.77-3-4.7-5.33.66-.41,1.13,0,1.52.42,4.11,4.07,8.34,8,12.21,12.33a4.11,4.11,0,0,1,.5.86c4.46,3.52,4.22,8.43,3.92,13.33-.09,1.39-.15,2.94-2.19,2.93C63.45,142.48,59.68,138.65,55.94,134.68Z" transform="translate(-17.19 -17.43)"/><path class="cls-15" d="M103,26.45c1.9.51,3.21,2,4.7,3.1,1,.73,1.53.88,2.51,0a18,18,0,0,1,4.72-3.14c1.55,0,1.67,1.18,1.71,2.23.13,3,.32,6-.53,8.88-.91,2.63-3.19,3.91-5.37,5.2a3.87,3.87,0,0,1-3.62,0c-2.23-1.14-4.54-2.31-5.28-5,1.39-2.79.91-5.77.84-8.7C102.61,28.15,102.21,27.23,103,26.45Z" transform="translate(-17.19 -17.43)"/><path class="cls-16" d="M153.89,18.49c4.79.34,9.18,2,13.48,4,1.94,2.94,1.32,6.14.9,9.29a2,2,0,0,1-1.65,1.63,4.19,4.19,0,0,1-2.4-.52,44.6,44.6,0,0,0-20.81-4.24c-1.63.07-3.34.36-4.9-.49a.65.65,0,0,1-.13-.8,3.68,3.68,0,0,1,2.5-.6c3.48-.65,6.94-.16,10.39.23,1.78.2,2.38-.37,2.42-2.1C153.74,22.76,153.3,20.61,153.89,18.49Z" transform="translate(-17.19 -17.43)"/><path class="cls-12" d="M115.43,38a46.74,46.74,0,0,0,.5-9c0-1,.1-2-1-2.52,3.75-3.23,8.31-4.73,13-6,1.5-.54,1.65.69,1.88,1.55a13.3,13.3,0,0,1-.26,7.5,3.73,3.73,0,0,1-.55,1.09c-2,1.74-4.68,2.38-6.9,3.82-1.38.91-2.75,1.82-4.12,2.75C117.18,37.67,116.46,38.33,115.43,38Z" transform="translate(-17.19 -17.43)"/><path class="cls-17" d="M186.85,36.94V50.8c0,.85.32,1.93-1,2.12-.93,0-1.27-.7-1.62-1.3a48.44,48.44,0,0,0-7.62-9.94,2.41,2.41,0,0,1-.89-1.7c1.5-2.95.91-6.1.87-9.19,0-1-.32-2,.34-2.85C181,30.06,183.82,33.62,186.85,36.94Z" transform="translate(-17.19 -17.43)"/><path class="cls-18" d="M79,18c4.94.08,9.48,1.73,14,3.52,1.36,2.73.73,5.58.45,8.4a1.76,1.76,0,0,1-1.51,1.44,2.08,2.08,0,0,1-.86,0,8.66,8.66,0,0,0-3.61-.75,59.29,59.29,0,0,0-18.37-1.9,4.17,4.17,0,0,1-2.4-.46.7.7,0,0,1-.26-.78,2.75,2.75,0,0,1,2-.67,49,49,0,0,1,8.39-.09c2.56.3,2.82-.16,2.94-2.66A15.72,15.72,0,0,0,79,18Z" transform="translate(-17.19 -17.43)"/><path class="cls-19" d="M172.87,109.74c1.53-.11,2,.69,2,2.12-.12,3.44.32,6.92-.51,10.33a93.24,93.24,0,0,1-9,9c-1-1-.49-2.16-.41-3.3.18-2.94.86-6-1-8.65a1.53,1.53,0,0,1,.41-2c2.31-2.45,4.68-4.85,7.17-7.13A1.15,1.15,0,0,1,172.87,109.74Z" transform="translate(-17.19 -17.43)"/><path class="cls-20" d="M153.89,18.49c1,2.72.34,5.55.45,8.32.06,1.4-1.14,1.25-2,1.11a38.57,38.57,0,0,0-11.45-.46c-1-1.19-.69-2.63-.73-4,0-1.86.16-3.76-.8-5.48,2.74-.94,5.54-.42,8.32-.29a22.52,22.52,0,0,1,2.7.3c.93.64,2.09-.11,3,.49A1.74,1.74,0,0,1,153.89,18.49Z" transform="translate(-17.19 -17.43)"/><path class="cls-21" d="M46.52,36.06c1.86-3.25.77-6.76.81-10.16,0-.62-.72-1.07-1.34-1.37A43.25,43.25,0,0,1,57,20c1.88-.74,2.64.13,2.72,1.91.1,2.23,0,4.47.22,6.69a2,2,0,0,1-.17.79c-1,1.18-2.82,1-3.88,2.09-2.44,1.7-5.28,2.71-7.72,4.42A1.27,1.27,0,0,1,46.52,36.06Z" transform="translate(-17.19 -17.43)"/><path class="cls-22" d="M163.85,118.7c2.07.47,1.84,2.22,2,3.69.35,2.94-.42,5.84-.49,8.77a93.24,93.24,0,0,1-9,9c1-3.75.3-7.57.48-11.36a1.42,1.42,0,0,0-1.25-1.59,1.11,1.11,0,0,0-.26,0c-.23-.65.16-1.11.55-1.52,2.08-2.19,4.23-4.33,6.42-6.41C162.73,118.85,163.19,118.46,163.85,118.7Z" transform="translate(-17.19 -17.43)"/><path class="cls-23" d="M67.44,146.15c.42-.37,1-.67,1.24-1.14,1.35-2.51,0-10.88-2-12.94-.67-.69-1.61-1.22-1.67-2.34.77-.41,1.25.17,1.69.59q4.17,4,8.18,8.16c.43.44,1,.93.62,1.7,2,3.4,2.15,7.15,2,10.93-.06,1.29.12,3-2,3A94.61,94.61,0,0,1,67.44,146.15Z" transform="translate(-17.19 -17.43)"/><path class="cls-4" d="M90.93,31c1.45.06,2.06-.64,2-2.09V21.52a28.69,28.69,0,0,1,10,4.93,35.93,35.93,0,0,1,.49,8.35A3.21,3.21,0,0,1,101.89,38c-3.24-1.08-5.68-3.55-8.72-5C92.29,32.54,91.05,32.36,90.93,31Z" transform="translate(-17.19 -17.43)"/><path class="cls-24" d="M176.87,27.94a58.74,58.74,0,0,1,.38,9.09A2.91,2.91,0,0,1,175.82,40c-.77.23-1.23-.31-1.75-.7-2.07-1.65-4.23-3.2-6.46-4.64-.6-.35-1.39-.68-1.27-1.64,1.52-.33,1.5-1.54,1.53-2.69a33.26,33.26,0,0,0-.5-7.78A29.4,29.4,0,0,1,176.87,27.94Z" transform="translate(-17.19 -17.43)"/><path class="cls-23" d="M79,18a2.38,2.38,0,0,1,1.53,2.72,17.11,17.11,0,0,0,0,2.48c-.12,4.68,1,4.53-4.4,4.14-2.58-.18-5.06.33-7.59.12a12.45,12.45,0,0,1,0-9.48A26.5,26.5,0,0,1,79,18Z" transform="translate(-17.19 -17.43)"/><path class="cls-25" d="M139.37,18c1.4-.11,1.56.75,1.54,1.87v7.6h-2.5A21,21,0,0,1,128.92,30c.32-2.8,1-5.58,0-8.4-.21-.62-.43-1-1.09-1.09A28.82,28.82,0,0,1,139.37,18Z" transform="translate(-17.19 -17.43)"/><path class="cls-14" d="M68.48,18v9.48h-2c-.54,1.25-2,1-2.84,1.67-1.34.48-2.65,1.34-4.12.37-.89-2.41-.52-4.91-.5-7.37,0-1.54-.37-2.4-2.07-2.16a18.48,18.48,0,0,1,7.48-1.5c1-.58,2.11.16,3-.48Z" transform="translate(-17.19 -17.43)"/><path class="cls-16" d="M153.41,18.49c-1-.14-2.13.41-3-.49C151.41,18.11,152.51,17.67,153.41,18.49Z" transform="translate(-17.19 -17.43)"/><path class="cls-23" d="M67.48,18c-.9.91-2,.35-3,.48C65.35,17.71,66.45,18.06,67.48,18Z" transform="translate(-17.19 -17.43)"/><path class="cls-26" d="M332.58,94.2V108c0,1.51-.46,2.11-2,2-2.39-.18-5.4,1-7-.43s-.47-4.39-.47-6.68c0-8.94-.47-17.9.51-26.82.44-4,1.67-5.56,4.08-5.6s3.6,1.34,4.15,5.49C332.62,81.51,332.38,87.16,332.58,94.2Z" transform="translate(-17.19 -17.43)"/><path class="cls-26" d="M500.91,100.5c0,7.56.34,15.12-.38,22.66a28.05,28.05,0,0,1-.66,4.17,3.93,3.93,0,0,1-4.31,3.31,3.87,3.87,0,0,1-4-3.33,36.38,36.38,0,0,1-.94-8.64q-.08-18.18,0-36.37a34,34,0,0,1,.8-7.66c.7-3.07,1.95-4.22,4.37-4.22s3.67,1.23,4.35,4.24a43.64,43.64,0,0,1,.8,8.91C501,89.21,500.91,94.86,500.91,100.5Z" transform="translate(-17.19 -17.43)"/><path class="cls-26" d="M59.52,29.51a9.28,9.28,0,0,0,4-1c.92-.62,2,0,3-.5,7.24-.37,14.42-.16,21.43,2a14.48,14.48,0,0,1,3,1h0c3.67,2.3,7.68,4.08,11,7,1.83,1.62,3.3,3.87,5.82,4.4,3.71.78,5.53-2.21,7.7-4.38a84.19,84.19,0,0,1,13-7.47,37.17,37.17,0,0,1,10-2.51c9.73-.69,19.11.58,27.94,5a106.11,106.11,0,0,1,9.47,7,69.74,69.74,0,0,1,10,13c3,7,4.9,14.17,4.57,21.86a47.65,47.65,0,0,1-5.58,20.35c-.18.37-.33.75-.47,1.13-3.19,5-7.38,9.19-11.44,13.48a101.92,101.92,0,0,0-9,9,94.37,94.37,0,0,0-8.5,8.47q-6.26,5.73-12,12-7.5,7-14.49,14.46a139.78,139.78,0,0,0-11.59,11.26c-1.94,1.88-3.91,3.74-5.83,5.64-2.49,2.44-2.48,2.45-5.11.35-5.81-6.17-11.78-12.17-18-17.93-4.13-4.51-8.44-8.84-13-12.94A121.71,121.71,0,0,0,65,129.73c-4.27-4.67-8.75-9.2-13.47-13.45-3.77-4.24-7.85-8.16-12-12a110.07,110.07,0,0,1-7-9.5c-2-4.71-3.88-9.45-4.58-14.6a46.76,46.76,0,0,1,3.78-26.64c.31-.67.55-1.37.83-2.06,1.81-2.43,3.64-4.85,5.44-7.3C40.31,41,43.53,38.63,46.48,36l9-5c1.26-.71,2.72-.89,4-1.52Z" transform="translate(-17.19 -17.43)"/><path class="cls-20" d="M138.41,28l-10,2.51.49-.54c3-1.29,6.32-1.71,9.49-2.49Z" transform="translate(-17.19 -17.43)"/><path class="cls-4" d="M90.94,31a5.39,5.39,0,0,1-3-1A3.1,3.1,0,0,1,90.94,31Z" transform="translate(-17.19 -17.43)"/><path class="cls-23" d="M66.49,28.06c-.91.73-2,.33-3,.5.77-1,2.14-.26,3-1Z" transform="translate(-17.19 -17.43)"/><path class="cls-14" d="M59.51,29.49a7.74,7.74,0,0,1-4,1.52A5.75,5.75,0,0,1,59.51,29.49Z" transform="translate(-17.19 -17.43)"/><path class="cls-27" d="M44.92,51.85A4.43,4.43,0,0,1,47,49.39c1.63.41,1.23,1.81,1.25,2.84q.12,6.71,0,13.42a51.07,51.07,0,0,0-.11,14.24c.56,5.07.11,10.23,0,15.35,0,.68-.09,1.56-1.17,1.57a4.29,4.29,0,0,1-2-2.48,19.79,19.79,0,0,1-.16-4v-36A20,20,0,0,1,44.92,51.85Z" transform="translate(-17.19 -17.43)"/><path class="cls-28" d="M39.52,61.87a11.2,11.2,0,0,1,1.89-4.53c1.74-.44,1.69.92,1.79,1.92a41.84,41.84,0,0,1,0,4.48V86.15c0,1.12.53,2.93-1.78,2.68a10.4,10.4,0,0,1-1.92-4.52c.57-3.85.2-7.73.21-11.59C39.74,69.11,40.08,65.48,39.52,61.87Z" transform="translate(-17.19 -17.43)"/><path class="cls-23" d="M41.44,88.83c1.19-.16,1.06-1.06,1.06-1.88V59.2c0-.84.08-1.71-1.09-1.86a10.26,10.26,0,0,1,2-3.5c1.9.47,1.28,2.09,1.29,3.21.09,6.71,0,13.43,0,20.15V89.89c0,1,.36,2.27-1.28,2.44A7,7,0,0,1,41.44,88.83Z" transform="translate(-17.19 -17.43)"/><path class="cls-18" d="M43.44,92.33c1.58-2.56.63-5.39.68-8.06.17-9.06,0-18.13,0-27.19,0-1.12.17-2.3-.71-3.24a3.3,3.3,0,0,1,1.5-2c.82.61.57,1.5.57,2.3V92c0,.8.26,1.69-.56,2.31A3.06,3.06,0,0,1,43.44,92.33Z" transform="translate(-17.19 -17.43)"/><path class="cls-10" d="M39.52,61.87c.79-.33,1,0,1,.77v20.9c0,.78-.2,1.11-1,.77A31.44,31.44,0,0,1,39.52,61.87Z" transform="translate(-17.19 -17.43)"/><path class="cls-12" d="M47,96.81c.84-.71.48-1.68.53-2.55.23-4.52-.37-9.05.43-13.57.31-1.75-.29-3.6-.53-5.37-.45-3.24.18-6.32.61-9.46a.37.37,0,0,1,.52,0l0,0c-1.08,6.26-1,12.41,1.48,18.38.73,4.27.2,8.56.06,12.83,0,.79-.4,1.7-1.61,1.2A3.49,3.49,0,0,1,47,96.81Z" transform="translate(-17.19 -17.43)"/><path class="cls-12" d="M48.54,65.87H48c-1-3.2-.23-6.5-.51-9.74-.2-2.24.56-4.55-.51-6.73a4.82,4.82,0,0,1,2-2c.7-.49,1.27-.09,1.23.53-.4,5.13.88,10.35-.75,15.42A5.46,5.46,0,0,1,48.54,65.87Z" transform="translate(-17.19 -17.43)"/><path class="cls-29" d="M51.5,86.77,54,89.85c1,3,1.38,5.92,0,8.89-1.66.54-3.31,1.7-5,0,1.39-.52,1.7-1.66,1.72-3v-6C50.78,88.75,50.62,87.63,51.5,86.77Z" transform="translate(-17.19 -17.43)"/><path class="cls-30" d="M49.5,63.37c.11-5.16.22-10.33.29-15.5,0-.14-.51-.3-.77-.45.68-.82,1.63-.45,2.48-.53a21.37,21.37,0,0,1,0,12.52A17.33,17.33,0,0,1,49.5,63.37Z" transform="translate(-17.19 -17.43)"/><path class="cls-30" d="M51.5,86.77c0,3.2-.13,6.4,0,9.59.1,2-.66,2.68-2.53,2.4l-.54-.48c1.38-.23,1-1.32,1-2.16.08-4-.23-7.94.54-11.87A5.48,5.48,0,0,1,51.5,86.77Z" transform="translate(-17.19 -17.43)"/><path class="cls-22" d="M51.51,59.41V46.89c.69,0,1.46-.19,2,.48,1.54,1.74.29,3.82.7,5.7A4.42,4.42,0,0,1,53,57.39C52.6,58.14,52.34,59,51.51,59.41Z" transform="translate(-17.19 -17.43)"/><path class="cls-31" d="M53,57.39c1.1-3.29.25-6.68.51-10,3.2,1.55,4.06,4.58,1.94,7.27C54.68,55.6,54.2,56.83,53,57.39Z" transform="translate(-17.19 -17.43)"/><path class="cls-31" d="M54,98.74V89.85C58,92.06,57.19,97.71,54,98.74Z" transform="translate(-17.19 -17.43)"/></svg>